<svg preserveAspectRatio="none" overflow="visible" style="display: block;" width="16" height="16" viewBox="0 0 16 16" fill="none" xmlns="http://www.w3.org/2000/svg">
<g id="Frame">
<path id="Vector" d="M10.4 14V12.6667C10.4 11.9594 10.1471 11.2811 9.69706 10.781C9.24697 10.281 8.63652 10 8 10H4.4C3.76348 10 3.15303 10.281 2.70294 10.781C2.25286 11.2811 2 11.9594 2 12.6667V14M10.4 2.08529C10.9147 2.23353 11.3704 2.56746 11.6958 3.03466C12.0212 3.50186 12.1977 4.07588 12.1977 4.66662C12.1977 5.25736 12.0212 5.83138 11.6958 6.29858C11.3704 6.76578 10.9147 7.09971 10.4 7.24795M14 13.9999V12.6666C13.9996 12.0757 13.8226 11.5018 13.4968 11.0348C13.171 10.5678 12.7149 10.2343 12.2 10.0866M8.6 4.66667C8.6 6.13943 7.52548 7.33333 6.2 7.33333C4.87452 7.33333 3.8 6.13943 3.8 4.66667C3.8 3.19391 4.87452 2 6.2 2C7.52548 2 8.6 3.19391 8.6 4.66667Z" stroke="#475569" stroke-width="2" stroke-linecap="round"/>
</g>
</svg>
